999
FreeCAD v0.20 29410 (Git)
  0
SECTION
  2
HEADER
  9
$ACADVER
  1
AC1014
  9
$ACADMAINTVER
 70
     9
  9
$DWGCODEPAGE
  3
ANSI_1252
  9
$TEXTSTYLE
  7
STANDARD
  9
$DIMSTYLE
  2
STANDARD
  9
$DIMTXSTY
  7
STANDARD
  9
$CMLSTYLE
  2
STANDARD
  9
$LUNITS
 70
2
  9
$INSUNITS
 70
4
  9
$PEXTMAX
 10
50
 20
50
 30
50
  9
$PEXTMIN
 10
0
 20
0
 30
0
  9
$HANDSEED
  5
FFFF
  0
ENDSEC
  0
SECTION
  2
CLASSES
  0
CLASS
  1
ACDBDICTIONARYWDFLT
  2
AcDbDictionaryWithDefault
  3
ObjectDBX Classes
 90
        0
280
     0
281
     0
  0
CLASS
  1
XRECORD
  2
AcDbXrecord
  3
ObjectDBX Classes
 90
        0
280
     0
281
     0
  0
CLASS
  1
LWPOLYLINE
  2
AcDbPolyline
  3
ObjectDBX Classes
 90
        0
280
     0
281
     1
  0
ENDSEC
  0
SECTION
  2
TABLES
  0
TABLE
  2
VPORT
  5
20
330
0
100
AcDbSymbolTable
 70
     1
  0
VPORT
  5
21
330
20
100
AcDbSymbolTableRecord
100
AcDbViewportTableRecord
  2
*ACTIVE
 70
     0
  0
ENDTAB
  0
TABLE
  2
LTYPE
  5
22
330
0
100
AcDbSymbolTable
 70
     1
  0
LTYPE
  5
23
330
21
100
AcDbSymbolTableRecord
100
AcDbLinetypeTableRecord
  2
BYBLOCK
 70
     0
  3

 72
    65
 73
     0
 40
0.0
  0
LTYPE
  5
24
330
21
100
AcDbSymbolTableRecord
100
AcDbLinetypeTableRecord
  2
BYLAYER
 70
     0
  3

 72
    65
 73
     0
 40
0.0
  0
LTYPE
  5
25
330
21
100
AcDbSymbolTableRecord
100
AcDbLinetypeTableRecord
  2
CONTINUOUS
 70
     0
  3
Solid line
 72
    65
 73
     0
 40
0.0
  0
ENDTAB
  0
TABLE
  2
LAYER
  5
A63
330
0
100
AcDbSymbolTable
 70
3
  0
LAYER
  5
A64
330
A63
100
AcDbSymbolTableRecord
100
AcDbLayerTableRecord
  2
0
 70
   0
 62
   7
  6
CONTINUOUS
  0
LAYER
  5
A65
330
A63
100
AcDbSymbolTableRecord
100
AcDbLayerTableRecord
  2
none
 70
    0
 62
    7
  6
CONTINUOUS
  0
LAYER
  5
A66
330
A63
100
AcDbSymbolTableRecord
100
AcDbLayerTableRecord
  2
Sketch
 70
    0
 62
    7
  6
CONTINUOUS
  0
ENDTAB
  0
TABLE
  2
STYLE
  5
70
330
0
100
AcDbSymbolTable
 70
     2
  0
STYLE
  5
71
330
70
100
AcDbSymbolTableRecord
100
AcDbTextStyleTableRecord
  2
STANDARD
 70
     0
 40
0.0
 41
1.0
 50
0.0
 71
     0
 42
2.5
  3
arial.ttf
  4

  0
STYLE
  5
72
330
70
100
AcDbSymbolTableRecord
100
AcDbTextStyleTableRecord
  2
ANNOTATIVE
 70
     0
 40
0.0
 41
1.0
 50
0.0
 71
     0
 42
2.5
  3
arial.ttf
  4

  0
ENDTAB
  0
TABLE
  2
VIEW
  5
73
330
0
100
AcDbSymbolTable
 70
     0
  0
ENDTAB
  0
TABLE
  2
UCS
  5
74
330
0
100
AcDbSymbolTable
 70
     0
  0
ENDTAB
  0
TABLE
  2
APPID
  5
75
330
0
100
AcDbSymbolTable
 70
     2
  0
APPID
  5
76
330
75
100
AcDbSymbolTableRecord
100
AcDbRegAppTableRecord
  2
ACAD
 70
     0
  0
APPID
  5
77
330
75
100
AcDbSymbolTableRecord
100
AcDbRegAppTableRecord
  2
ACADANNOTATIVE
 70
     0
  0
ENDTAB
  0
TABLE
  2
DIMSTYLE
  5
78
330
0
100
AcDbSymbolTable
 70
     2
  0
DIMSTYLE
105
79
330
78
100
AcDbSymbolTableRecord
100
AcDbDimStyleTableRecord
  2
STANDARD
 70
     0
  3

  4

  5

  6

  7

 40
0.0
 41
2.5
 42
0.625
 43
3.75
 44
1.25
 45
0.0
 46
0.0
 47
0.0
 48
0.0
140
2.5
141
2.5
142
0.0
143
0.03937007874016
144
1.0
145
0.0
146
1.0
147
0.625
 71
     0
 72
     0
 73
     0
 74
     0
 75
     0
 76
     0
 77
     1
 78
     8
170
     0
171
     3
172
     1
173
     0
174
     0
175
     0
176
     0
177
     0
178
     0
270
     2
271
     2
272
     2
273
     2
274
     3
340
71
275
     0
280
     0
281
     0
282
     0
283
     0
284
     8
285
     0
286
     0
287
     3
288
     0
  0
ENDTAB
  0
TABLE
  2
BLOCK_RECORD
  5
A01
330
0
100
AcDbSymbolTable
  70
5
  0
BLOCK_RECORD
  5
A02
330
A01
100
AcDbSymbolTableRecord
100
AcDbBlockTableRecord
  2
*MODEL_SPACE
  0
BLOCK_RECORD
  5
A03
330
A01
100
AcDbSymbolTableRecord
100
AcDbBlockTableRecord
  2
*PAPER_SPACE
  0
ENDTAB
  0
ENDSEC
  0
SECTION
  2
BLOCKS
  0
BLOCK
  5
A04
330
A02
100
AcDbEntity
  8
0
100
AcDbBlockBegin
  2
*MODEL_SPACE
 70
   0
 10
0
 20
0
 30
0
  3
*MODEL_SPACE
  1
 
  0
ENDBLK
  5
A05
330
A02
100
AcDbEntity
  8
0
100
AcDbBlockEnd
  0
BLOCK
  5
A06
330
A03
100
AcDbEntity
 67
1
  8
0
100
AcDbBlockBegin
  2
*PAPER_SPACE
 70
   0
 10
0
 20
0
 30
0
  3
*PAPER_SPACE
  1
 
  0
ENDBLK
  5
A07
330
A03
100
AcDbEntity
 67
    1
  8
0
100
AcDbBlockEnd
  0
ENDSEC
  0
SECTION
  2
ENTITIES
  0
LINE
  5
A08
330
A02
100
AcDbEntity
  8
Sketch
100
AcDbLine
 10
-230
 20
180
 30
0
 11
230
 21
180
 31
0
  0
LINE
  5
A09
330
A02
100
AcDbEntity
  8
Sketch
100
AcDbLine
 10
230
 20
-50
 30
0
 11
230
 21
180
 31
0
  0
LINE
  5
A0A
330
A02
100
AcDbEntity
  8
Sketch
100
AcDbLine
 10
-230
 20
-50
 30
0
 11
230
 21
-50
 31
0
  0
LINE
  5
A0B
330
A02
100
AcDbEntity
  8
Sketch
100
AcDbLine
 10
-230
 20
180
 30
0
 11
-230
 21
-50
 31
0
  0
LINE
  5
A0C
330
A02
100
AcDbEntity
  8
Sketch
100
AcDbLine
 10
10
 20
135
 30
0
 11
30
 21
135
 31
0
  0
LINE
  5
A0D
330
A02
100
AcDbEntity
  8
Sketch
100
AcDbLine
 10
30
 20
135
 30
0
 11
30
 21
55
 31
0
  0
LINE
  5
A0E
330
A02
100
AcDbEntity
  8
Sketch
100
AcDbLine
 10
30
 20
55
 30
0
 11
10
 21
55
 31
0
  0
LINE
  5
A0F
330
A02
100
AcDbEntity
  8
Sketch
100
AcDbLine
 10
10
 20
55
 30
0
 11
10
 21
135
 31
0
  0
CIRCLE
  5
A10
330
A02
100
AcDbEntity
  8
Sketch
100
AcDbCircle
 10
-105
 20
25
 40
5
  0
CIRCLE
  5
A11
330
A02
100
AcDbEntity
  8
Sketch
100
AcDbCircle
 10
-71
 20
25
 40
5
  0
CIRCLE
  5
A12
330
A02
100
AcDbEntity
  8
Sketch
100
AcDbCircle
 10
-37
 20
25
 40
5
  0
CIRCLE
  5
A13
330
A02
100
AcDbEntity
  8
Sketch
100
AcDbCircle
 10
133
 20
25
 40
7.5
  0
CIRCLE
  5
A14
330
A02
100
AcDbEntity
  8
Sketch
100
AcDbCircle
 10
-147
 20
95
 40
12.5
  0
CIRCLE
  5
A15
330
A02
100
AcDbEntity
  8
Sketch
100
AcDbCircle
 10
-147
 20
67
 40
3.5
  0
CIRCLE
  5
A16
330
A02
100
AcDbEntity
  8
Sketch
100
AcDbCircle
 10
-147
 20
123
 40
3.5
  0
CIRCLE
  5
A17
330
A02
100
AcDbEntity
  8
Sketch
100
AcDbCircle
 10
119
 20
95
 40
12.5
  0
CIRCLE
  5
A18
330
A02
100
AcDbEntity
  8
Sketch
100
AcDbCircle
 10
119
 20
67
 40
3.5
  0
CIRCLE
  5
A19
330
A02
100
AcDbEntity
  8
Sketch
100
AcDbCircle
 10
119
 20
123
 40
3.5
  0
CIRCLE
  5
A1A
330
A02
100
AcDbEntity
  8
Sketch
100
AcDbCircle
 10
-6
 20
150
 40
12.5
  0
CIRCLE
  5
A1B
330
A02
100
AcDbEntity
  8
Sketch
100
AcDbCircle
 10
22
 20
150
 40
3.5
  0
CIRCLE
  5
A1C
330
A02
100
AcDbEntity
  8
Sketch
100
AcDbCircle
 10
-34
 20
150
 40
3.5
  0
CIRCLE
  5
A1D
330
A02
100
AcDbEntity
  8
Sketch
100
AcDbCircle
 10
159
 20
70
 40
10
  0
CIRCLE
  5
A1E
330
A02
100
AcDbEntity
  8
Sketch
100
AcDbCircle
 10
-187
 20
70
 40
10
  0
CIRCLE
  5
A1F
330
A02
100
AcDbEntity
  8
Sketch
100
AcDbCircle
 10
-225
 20
150
 40
2.75
  0
CIRCLE
  5
A20
330
A02
100
AcDbEntity
  8
Sketch
100
AcDbCircle
 10
225
 20
150
 40
2.75
  0
CIRCLE
  5
A21
330
A02
100
AcDbEntity
  8
Sketch
100
AcDbCircle
 10
-225
 20
65
 40
2.75
  0
CIRCLE
  5
A22
330
A02
100
AcDbEntity
  8
Sketch
100
AcDbCircle
 10
225
 20
65
 40
2.75
  0
CIRCLE
  5
A23
330
A02
100
AcDbEntity
  8
Sketch
100
AcDbCircle
 10
-225
 20
-20
 40
2.75
  0
CIRCLE
  5
A24
330
A02
100
AcDbEntity
  8
Sketch
100
AcDbCircle
 10
225
 20
-20
 40
2.75
  0
ARC
  5
A25
330
A02
100
AcDbEntity
  8
Sketch
100
AcDbCircle
 10
-122
 20
44
 30
0
 40
2.75
100
AcDbArc
 50
0
 51
180
  0
LINE
  5
A26
330
A02
100
AcDbEntity
  8
Sketch
100
AcDbLine
 10
-124.75
 20
44
 30
0
 11
-124.75
 21
39
 31
0
  0
ARC
  5
A27
330
A02
100
AcDbEntity
  8
Sketch
100
AcDbCircle
 10
-122
 20
39
 30
0
 40
2.75
100
AcDbArc
 50
180
 51
0
  0
LINE
  5
A28
330
A02
100
AcDbEntity
  8
Sketch
100
AcDbLine
 10
-119.25
 20
39
 30
0
 11
-119.25
 21
44
 31
0
  0
ARC
  5
A29
330
A02
100
AcDbEntity
  8
Sketch
100
AcDbCircle
 10
-54
 20
44
 30
0
 40
2.75
100
AcDbArc
 50
0
 51
180
  0
LINE
  5
A2A
330
A02
100
AcDbEntity
  8
Sketch
100
AcDbLine
 10
-56.75
 20
44
 30
0
 11
-56.75
 21
39
 31
0
  0
ARC
  5
A2B
330
A02
100
AcDbEntity
  8
Sketch
100
AcDbCircle
 10
-54
 20
39
 30
0
 40
2.75
100
AcDbArc
 50
180
 51
0
  0
LINE
  5
A2C
330
A02
100
AcDbEntity
  8
Sketch
100
AcDbLine
 10
-51.25
 20
39
 30
0
 11
-51.25
 21
44
 31
0
  0
ARC
  5
A2D
330
A02
100
AcDbEntity
  8
Sketch
100
AcDbCircle
 10
14
 20
44
 30
0
 40
2.75
100
AcDbArc
 50
0
 51
180
  0
LINE
  5
A2E
330
A02
100
AcDbEntity
  8
Sketch
100
AcDbLine
 10
11.25
 20
44
 30
0
 11
11.25
 21
39
 31
0
  0
ARC
  5
A2F
330
A02
100
AcDbEntity
  8
Sketch
100
AcDbCircle
 10
14
 20
39
 30
0
 40
2.75
100
AcDbArc
 50
180
 51
0
  0
LINE
  5
A30
330
A02
100
AcDbEntity
  8
Sketch
100
AcDbLine
 10
16.75
 20
39
 30
0
 11
16.75
 21
44
 31
0
  0
ARC
  5
A31
330
A02
100
AcDbEntity
  8
Sketch
100
AcDbCircle
 10
82
 20
44
 30
0
 40
2.75
100
AcDbArc
 50
0
 51
180
  0
LINE
  5
A32
330
A02
100
AcDbEntity
  8
Sketch
100
AcDbLine
 10
79.25
 20
44
 30
0
 11
79.25
 21
39
 31
0
  0
ARC
  5
A33
330
A02
100
AcDbEntity
  8
Sketch
100
AcDbCircle
 10
82
 20
39
 30
0
 40
2.75
100
AcDbArc
 50
180
 51
0
  0
LINE
  5
A34
330
A02
100
AcDbEntity
  8
Sketch
100
AcDbLine
 10
84.75
 20
39
 30
0
 11
84.75
 21
44
 31
0
  0
CIRCLE
  5
A35
330
A02
100
AcDbEntity
  8
Sketch
100
AcDbCircle
 10
-193.5
 20
-45
 40
2.75
  0
CIRCLE
  5
A36
330
A02
100
AcDbEntity
  8
Sketch
100
AcDbCircle
 10
-64.5
 20
-45
 40
2.75
  0
CIRCLE
  5
A37
330
A02
100
AcDbEntity
  8
Sketch
100
AcDbCircle
 10
64.5
 20
-45
 40
2.75
  0
CIRCLE
  5
A38
330
A02
100
AcDbEntity
  8
Sketch
100
AcDbCircle
 10
193.5
 20
-45
 40
2.75
  0
CIRCLE
  5
A39
330
A02
100
AcDbEntity
  8
Sketch
100
AcDbCircle
 10
-193.5
 20
175
 40
2.75
  0
CIRCLE
  5
A3A
330
A02
100
AcDbEntity
  8
Sketch
100
AcDbCircle
 10
-64.5
 20
175
 40
2.75
  0
CIRCLE
  5
A3B
330
A02
100
AcDbEntity
  8
Sketch
100
AcDbCircle
 10
64.5
 20
175
 40
2.75
  0
CIRCLE
  5
A3C
330
A02
100
AcDbEntity
  8
Sketch
100
AcDbCircle
 10
193.5
 20
175
 40
2.75
  0
CIRCLE
  5
A3D
330
A02
100
AcDbEntity
  8
Sketch
100
AcDbCircle
 10
-129
 20
-25
 40
2.1
  0
CIRCLE
  5
A3E
330
A02
100
AcDbEntity
  8
Sketch
100
AcDbCircle
 10
0
 20
-25
 40
2.1
  0
CIRCLE
  5
A3F
330
A02
100
AcDbEntity
  8
Sketch
100
AcDbCircle
 10
129
 20
-25
 40
2.1
  0
ARC
  5
A40
330
A02
100
AcDbEntity
  8
Sketch
100
AcDbCircle
 10
146.5
 20
45
 30
0
 40
2.75
100
AcDbArc
 50
90
 51
-90
  0
LINE
  5
A41
330
A02
100
AcDbEntity
  8
Sketch
100
AcDbLine
 10
146.5
 20
42.25
 30
0
 11
151.5
 21
42.25
 31
0
  0
ARC
  5
A42
330
A02
100
AcDbEntity
  8
Sketch
100
AcDbCircle
 10
151.5
 20
45
 30
0
 40
2.75
100
AcDbArc
 50
-90
 51
90
  0
LINE
  5
A43
330
A02
100
AcDbEntity
  8
Sketch
100
AcDbLine
 10
151.5
 20
47.75
 30
0
 11
146.5
 21
47.75
 31
0
  0
ARC
  5
A44
330
A02
100
AcDbEntity
  8
Sketch
100
AcDbCircle
 10
166.5
 20
45
 30
0
 40
2.75
100
AcDbArc
 50
90
 51
-90
  0
LINE
  5
A45
330
A02
100
AcDbEntity
  8
Sketch
100
AcDbLine
 10
166.5
 20
42.25
 30
0
 11
171.5
 21
42.25
 31
0
  0
ARC
  5
A46
330
A02
100
AcDbEntity
  8
Sketch
100
AcDbCircle
 10
171.5
 20
45
 30
0
 40
2.75
100
AcDbArc
 50
-90
 51
90
  0
LINE
  5
A47
330
A02
100
AcDbEntity
  8
Sketch
100
AcDbLine
 10
171.5
 20
47.75
 30
0
 11
166.5
 21
47.75
 31
0
  0
ARC
  5
A48
330
A02
100
AcDbEntity
  8
Sketch
100
AcDbCircle
 10
180.5
 20
40
 30
0
 40
2.75
100
AcDbArc
 50
90
 51
-90
  0
LINE
  5
A49
330
A02
100
AcDbEntity
  8
Sketch
100
AcDbLine
 10
180.5
 20
37.25
 30
0
 11
185.5
 21
37.25
 31
0
  0
ARC
  5
A4A
330
A02
100
AcDbEntity
  8
Sketch
100
AcDbCircle
 10
185.5
 20
40
 30
0
 40
2.75
100
AcDbArc
 50
-90
 51
90
  0
LINE
  5
A4B
330
A02
100
AcDbEntity
  8
Sketch
100
AcDbLine
 10
185.5
 20
42.75
 30
0
 11
180.5
 21
42.75
 31
0
  0
ARC
  5
A4C
330
A02
100
AcDbEntity
  8
Sketch
100
AcDbCircle
 10
200.5
 20
40
 30
0
 40
2.75
100
AcDbArc
 50
90
 51
-90
  0
LINE
  5
A4D
330
A02
100
AcDbEntity
  8
Sketch
100
AcDbLine
 10
200.5
 20
37.25
 30
0
 11
205.5
 21
37.25
 31
0
  0
ARC
  5
A4E
330
A02
100
AcDbEntity
  8
Sketch
100
AcDbCircle
 10
205.5
 20
40
 30
0
 40
2.75
100
AcDbArc
 50
-90
 51
90
  0
LINE
  5
A4F
330
A02
100
AcDbEntity
  8
Sketch
100
AcDbLine
 10
205.5
 20
42.75
 30
0
 11
200.5
 21
42.75
 31
0
  0
ARC
  5
A50
330
A02
100
AcDbEntity
  8
Sketch
100
AcDbCircle
 10
-199.5
 20
45
 30
0
 40
2.75
100
AcDbArc
 50
90
 51
-90
  0
LINE
  5
A51
330
A02
100
AcDbEntity
  8
Sketch
100
AcDbLine
 10
-199.5
 20
42.25
 30
0
 11
-194.5
 21
42.25
 31
0
  0
ARC
  5
A52
330
A02
100
AcDbEntity
  8
Sketch
100
AcDbCircle
 10
-194.5
 20
45
 30
0
 40
2.75
100
AcDbArc
 50
-90
 51
90
  0
LINE
  5
A53
330
A02
100
AcDbEntity
  8
Sketch
100
AcDbLine
 10
-194.5
 20
47.75
 30
0
 11
-199.5
 21
47.75
 31
0
  0
ARC
  5
A54
330
A02
100
AcDbEntity
  8
Sketch
100
AcDbCircle
 10
-179.5
 20
45
 30
0
 40
2.75
100
AcDbArc
 50
90
 51
-90
  0
LINE
  5
A55
330
A02
100
AcDbEntity
  8
Sketch
100
AcDbLine
 10
-179.5
 20
42.25
 30
0
 11
-174.5
 21
42.25
 31
0
  0
ARC
  5
A56
330
A02
100
AcDbEntity
  8
Sketch
100
AcDbCircle
 10
-174.5
 20
45
 30
0
 40
2.75
100
AcDbArc
 50
-90
 51
90
  0
LINE
  5
A57
330
A02
100
AcDbEntity
  8
Sketch
100
AcDbLine
 10
-174.5
 20
47.75
 30
0
 11
-179.5
 21
47.75
 31
0
  0
CIRCLE
  5
A58
330
A02
100
AcDbEntity
  8
Sketch
100
AcDbCircle
 10
-71
 20
67
 40
5
  0
CIRCLE
  5
A59
330
A02
100
AcDbEntity
  8
Sketch
100
AcDbCircle
 10
-37
 20
67
 40
5
  0
CIRCLE
  5
A5A
330
A02
100
AcDbEntity
  8
Sketch
100
AcDbCircle
 10
-5
 20
35
 40
2.75
  0
CIRCLE
  5
A5B
330
A02
100
AcDbEntity
  8
Sketch
100
AcDbCircle
 10
-37
 20
122
 40
12.5
  0
CIRCLE
  5
A5C
330
A02
100
AcDbEntity
  8
Sketch
100
AcDbCircle
 10
-47
 20
96
 40
2.75
  0
CIRCLE
  5
A5D
330
A02
100
AcDbEntity
  8
Sketch
100
AcDbCircle
 10
-27
 20
96
 40
2.75
  0
CIRCLE
  5
A5E
330
A02
100
AcDbEntity
  8
Sketch
100
AcDbCircle
 10
65
 20
70
 40
7.5
  0
CIRCLE
  5
A5F
330
A02
100
AcDbEntity
  8
Sketch
100
AcDbCircle
 10
-22
 20
41.5
 40
2.1
  0
CIRCLE
  5
A60
330
A02
100
AcDbEntity
  8
Sketch
100
AcDbCircle
 10
210
 20
-30
 40
3.5
  0
CIRCLE
  5
A61
330
A02
100
AcDbEntity
  8
Sketch
100
AcDbCircle
 10
-210
 20
-30
 40
3.5
  0
CIRCLE
  5
A62
330
A02
100
AcDbEntity
  8
Sketch
100
AcDbCircle
 10
-86
 20
41.5
 40
2.1
  0
ENDSEC
  0
SECTION
  2
OBJECTS
  0
DICTIONARY
  5
F000
330
0
100
AcDbDictionary
  3
ACAD_GROUP
350
F001
  0
DICTIONARY
  5
F001
330
F000
100
AcDbDictionary
  0
ENDSEC
  0
EOF